<?xml version="1.0" encoding="UTF-8"?>
<!-- Created with Inkscape (http://www.inkscape.org/) -->
<svg xmlns="http://www.w3.org/2000/svg" version="1.1" width="265.68mm" height="89.294mm" viewBox="0 0 265.68 89.294">
	<path id="Trademark" d="m229.61 30.092v-13h-5.525v-3.7h15.901v3.7h-5.576v13zm13.2 0v-16.7h6.7l2.7 10.3 2.8-10.3h6.672v16.7h-4.072v-13.7l-3.498 13.7h-3.702l-3.5-13.7v13.7z"/>
	<path id="JASM" d="m177.36 21.702c-9.111 0-13.49 7.8254-13.49 7.8254v-7.0182h-12.963v48.155h13.033v-27.557s-7e-3 -9 7.9003-9c7.907 0 7.4998 9 7.4998 9v27.557h12.9v-27.559s0.0343-9 7.9003-9c7.866 0 7.5995 9 7.5995 9v27.558h12.951s0.90602-32.252-0.89297-38.588c-2.963-10.438-12.757-10.346-15.096-10.346-9.222 0-14.362 7.7737-14.362 7.7737s-3.0856-7.8011-12.98-7.8011zm-53.142 0.12196c-2.833-0.01466-5.6543 0.41298-8.3525 1.3674-7.72 2.45-11.783 11.743-8.8331 19.172 3.604 8.225 13.595 8.8298 20.957 11.816 2.928 0.965 3.625 4.9329 0.69505 6.3929-6.64 1.787-13.514-1.2708-18.898-5.0498-2.441 2.438-3.9128 5.8219-5.9748 8.6289 5.175 4.874 12.958 7.159 20.146 7.536l-1e-3 1e-3c3.205-0.108 6.4276-0.37182 9.4346-1.5818 7.476-2.155 11.221-10.914 9.0661-18.065-3.24-8.6-13.447-9.6198-20.787-12.94-2.663-0.523-4.4771-4.1603-1.8371-5.8503 5.583-2.632 11.81 1.1168 16.91 3.5698 1.582-3.189 3.4538-6.245 5.1418-9.385-5.1473-3.4079-11.435-5.5798-17.667-5.6121zm-48.28 0.15865c-7.5782 0-12.704 1.5002-18.119 3.9517l3.3088 10.64c4.2095-1.7668 8.8715-2.8114 12.899-2.667 7.6771 0.27513 10.17 3.5794 10.032 9.8108-3.7653-1.404-7.9807-2.056-11.43-2.0267-4.8938 0.04156-9.9117 0.98328-13.551 3.8551-3.1241 2.4652-5.2538 6.3046-5.2725 12.016-0.01551 4.7204 1.689 8.4853 4.7062 11.198 3.3515 2.8004 7.2362 3.8551 11.333 3.8551 5.6587 0 10.172-1.7123 14.12-6.2286v5.3258h12.804v-28.53c0-6.6702-1.7967-12.204-4.9687-15.601-4.2108-4.5091-10.001-5.5986-15.862-5.5986zm-46.313 0.58911v39.853c-0.26725 6.1884-2.2513 10.078-8.2987 10.242-3.8339-0.18086-7.3354-3.099-9.4005-5.3464l-7.9215 8.6987c5.137 6.2029 10.726 9.2243 17.669 9.2754 5.8999-0.09932 11.836-1.6892 15.851-5.5252 4.4576-4.6718 5.9901-10.603 6.0622-16.735v-40.462zm46.147 27.488c3.1438 0 6.0932 0.77053 8.4553 1.8402 0 4.3059-0.10855 5.035-1.0656 6.6926-1.7299 2.9962-5.331 4.3987-9.3018 4.3987-4.0224 0-7.2378-1.8268-7.2378-6.1443 0-5.1017 4.4867-6.7872 9.1498-6.7872z"/>
	<rect id="Karet" x="29.547" y="4" width="14.013" height="14.013" fill="#e11b1f"/>
</svg>
