<svg height="130.77344pt" viewBox="0 0 124 130.77344" width="124pt" xmlns="http://www.w3.org/2000/svg" xmlns:xlink="http://www.w3.org/1999/xlink"><clipPath id="a"><path d="m254 275.80859h79v78.19141h-79zm0 0"/></clipPath><clipPath id="b"><path d="m231.33984 363h124v29h-124zm0 0"/></clipPath><clipPath id="c"><path d="m234 399h119v7.58203h-119zm0 0"/></clipPath><g clip-path="url(#a)" transform="translate(-231.33984 -275.80859)"><path d="m299.24609 333.91016c.10938-.10157.23828-.19922.38282-.28907.17187-.10156.34765-.17968.51562-.23047.39844-.15234.84375-.20312 1.29688-.12109 1.33984.23828 2.23828 1.51953 2.0039 2.86328-.19922 1.11328-1.11328 1.91797-2.18359 2.02735v.004h-.0274c-.13671.0156-.27343.0156-.41406 0l-7.01172.0508zm-5.98828 4.30468-7.01172-.0508c-.14062.0156-.28125.0117-.41797 0h-.0234v-.004c-1.07422-.10938-1.98828-.91407-2.1836-2.02735-.23828-1.34375.66016-2.625 2.00391-2.86328.45312-.082.89844-.0312 1.30078.12109.16406.0508.33984.12891.51172.23047.14062.0899.26953.1875.38281.28907zm3.05469-9.20703h.0117l-2.79688 9.27344-2.72656-9.06641-.0273-.15234c-.0664-.23828-.10157-.49219-.10157-.75391 0-1.57812 1.28125-2.85937 2.85938-2.85937 1.58203 0 2.86328 1.28125 2.86328 2.85937 0 .17578-.0195.34766-.0469.51563-.008.0664-.0234.125-.0352.18359m1.48828-48.24219.30078-4.95703c1.41797.16407 2.8086.40625 4.17188.71875l-.8125 5.48438c-.19532-.71875-.875-1.2461-1.6875-1.2461-.008 0-.0117.004-.0234.004v-.004zm-6.81641 29.48047.8125 13.27735c-.0391.004-.082.008-.12109.0117l-2.08594-14.08985c.3086.45313.82032.75781 1.39453.80078m-5.51171-28.60547-.75391-5.09765c1.36328-.3125 2.75391-.5586 4.16797-.72656l.30078 4.89843h-2.20703c-.66406.0234-1.23438.39453-1.50781.92578m12.15625 26.25-2.31641 15.64454c-.0391-.004-.082-.008-.12109-.0117l.95312-15.6211h1.35156v-.004c.0469 0 .0899-.004.13282-.008m-25.08985-26.20703c1.16797-.75 2.3711-1.4375 3.61719-2.05468l12.38281 44.66796c-.0391.0117-.0781.0312-.11719.043zm-6.97265 5.71875 20.00781 38.45313c-.0352.0273-.0703.0508-.10938.082l-22.54297-35.5c.82813-1.05469 1.71094-2.06641 2.64454-3.03516m-7.25 10.4961 24.90234 30.22265c-.0312.0391-.0625.0781-.0898.1211l-26.26562-26.80438c.42578-1.20703.91406-2.38672 1.45313-3.53906m-3.39454 11.80468 26.80079 21.32813c-.0156.0547-.0312.10937-.0469.16406l-27.02344-17.9375c.0391-1.19531.12891-2.38672.26953-3.55469m.28516 11.41797 26.19922 13.06641c.004.0664.0117.13281.0195.19922l-25.53125-10.09766c-.27344-1.03906-.5-2.09765-.6875-3.16797m3.09766 9.83203 23.92578 6.19141c.0391.0781.0781.15625.11328.22656l-22.70313-3.82812c-.47656-.84375-.92187-1.70703-1.33593-2.58985m4.76172 7.67188 20.8164.91016c.0625.0664.125.13281.1875.19531l-19.37109.82422c-.5625-.625-1.10938-1.26953-1.63281-1.92969m22.66796 2.5c.0781.0547.15235.10547.23047.15234l-15.99609 4.11719c-.57031-.4375-1.12891-.88672-1.67188-1.35547zm1.75391 1.00781c.082.0352.16406.0742.24219.11328l-12.80469 6.35938c-.53125-.28906-1.05859-.58985-1.57422-.90625zm1.49219.59375c.0625.0234.125.0391.1875.0625l-9.89844 7.85156c-.46094-.18359-.92187-.375-1.37891-.57421zm1.25.35156c.0547.0117.11328.0234.16797.0352l-7.28516 8.81641c-.41016-.11328-.81641-.23828-1.22266-.36328zm1.04297.19922c.0469.004.0937.0117.14062.0195l-4.91401 9.40628c-.36719-.0664-.73438-.13671-1.09766-.21484zm.86328.10547c.0469.004.0937.008.14062.0117l-2.71875 9.74609c-.33984-.0391-.68359-.0781-1.02343-.12109zm.80469.0508c.0391 0 .082.004.125.004l-.6211 9.88672c-.32812-.0117-.65234-.0234-.98047-.0391zm2.57812 9.85547c-.32422.0195-.65234.0312-.98047.0391l-.61328-9.89062c.0391 0 .082-.004.12109-.004zm2.9375-.25781c-.33984.043-.68359.0781-1.02344.11328l-2.72265-9.75c.0469-.004.0937-.008.13672-.0117zm3.14063-.52734c-.36719.0742-.73438.14843-1.10547.21484l-4.91797-9.42188c.0469-.008.0937-.0156.14453-.0195zm3.51953-.91797c-.40625.125-.81641.24609-1.22657.35937l-7.30078-8.83203c.0547-.0117.10938-.0234.16407-.0352zm4.01172-1.5c-.45704.19922-.92188.39062-1.38672.57422l-9.92578-7.8711c.0625-.0234.125-.0391.1875-.0625zm4.55859-2.36719c-.51953.3125-1.04688.61719-1.58203.91016l-12.84766-6.38282c.0781-.0391.16016-.0781.23828-.11328zm5.07031-3.66797c-.54687.46484-1.10937.92188-1.67969 1.35547l-16.05468-4.12891c.0742-.0469.15625-.0976.23047-.15234zm3.60547-3.49219-19.44922-.82812c.0664-.0625.12891-.12891.19141-.19531l20.89844-.91407c-.52735.66407-1.07032 1.3086-1.64063 1.9375m5.07422-7.03125-22.79688 3.84375c.043-.0703.0781-.14843.11329-.22656l24.01953-6.21484c-.41407.88281-.86328 1.75-1.33594 2.59765m3.74609-9.27343-25.62109 10.13281c.008-.0664.0156-.13281.0195-.19922l26.28516-13.10938c-.1836 1.07422-.41016 2.13282-.6836 3.17579m1.22657-11.04688-27.09766 17.98828c-.0156-.0547-.0352-.10937-.0508-.16406l26.875-21.38672c.14844 1.17578.23828 2.36328.27344 3.5625m-2.22657-11.82812-26.32422 26.86328c-.0312-.043-.0625-.082-.0898-.1211l24.95313-30.28125c.54296 1.14844 1.03125 2.32813 1.46093 3.53907m-6.08203-10.9961-22.57812 35.55469c-.0391-.0312-.0742-.0547-.11328-.082l20.03906-38.50391c.93359.96485 1.82031 1.97266 2.65234 3.03125m-9.64062-8.73828-15.89453 42.69531c-.0391-.0117-.0781-.0312-.11719-.043l12.39062-44.70312c1.2461.62109 2.45313 1.30469 3.6211 2.05078m-13.70703 22.69922h-.004v.004c0 .46875-.38281.85546-.85547.85546s-.85937-.38671-.85937-.85546v-5h-11.00391v5.03125c0 .47265-.38281.85156-.85547.85156s-.85547-.37891-.85937-.84766h-.004v-5.30078c0-.79687.64453-1.44141 1.44141-1.44531v-.004h11.59375v.004c.77734.0234 1.40625.66015 1.40625 1.44531zm-3.01172-9.89453v-.004c-.008 0-.0117 0-.0195 0-.47266 0-.85547-.3789-.85547-.85156 0-.47656.38281-.85938.85547-.85938h.0195v-.004h1.33593v-.91797h-1.375v-.004c-.46093-.008-.83593-.39062-.83593-.85547 0-.46875.375-.84765.83593-.85546h1.375v-.12891h.004c.0117-.46484.38672-.83594.85547-.83594.46484 0 .84375.3711.85156.83594h.008v5.6875c0 .80078-.64843 1.44922-1.44921 1.44922-.0781 0-.15625-.004-.23438-.0195h-1.39453c-.47266-.004-.85156-.38672-.85156-.85547 0-.47266.3789-.85547.85156-.85938h1.35937v-.92187zm-9.75391 0v.92187h1.35938c.47265.004.85156.38672.85156.85938 0 .46875-.37891.85156-.85156.85547h-1.39454c-.0781.0156-.15234.0195-.23437.0195-.80078 0-1.44922-.64844-1.44922-1.44922 0-.0195 0-.043 0-.0664v-5.62109h.004c.0117-.46484.39062-.83594.85547-.83594.46875 0 .84375.3711.85546.83594h.004v.12891h1.37109c.46485.008.83985.38671.83985.85546 0 .46485-.375.84766-.83985.85547v.004h-1.37109v.91797h1.33203v.004h.0234c.47266 0 .85547.38282.85547.85938 0 .47266-.38281.85156-.85547.85156-.008 0-.0156 0-.0234 0v.004zm7.44531 2.01562c-.043.46875-.45703.81641-.92578.77735-.1914-.0156-.35937-.0937-.48828-.20703l-.004.004-.58203-.5664-.85547.76171-.0117-.0156c-.17188.16406-.41016.25391-.66407.23047-.46875-.0391-.82031-.45703-.77734-.92578.0234-.27344.17969-.50782.39453-.64453l.67969-.60938-.5-.49219.008-.008c-.14453-.16797-.22266-.39062-.20312-.62891.0391-.46875.45703-.8164.92968-.77734.17578.0156.33203.0859.46485.1875l.0156.0156c.0274.0234.0547.0508.0781.0742l.49218.48438.88672-.79297c.16797-.18359.42188-.28906.69532-.26172.46875.0391.82031.45313.77734.92578-.0234.2461-.14453.45313-.32422.59375l.008.008-.8125.72656.4961.48437v.004c.15625.17187.24218.40234.22265.65234m0-4.125c-.043.46875-.45703.81641-.92578.77735-.1914-.0156-.35937-.0937-.48828-.20703l-.004.004-.58203-.57031-.85547.76172-.0117-.0117c-.17188.16406-.41016.25391-.66407.23047-.46875-.0391-.82031-.45703-.77734-.92578.0234-.27735.17969-.50782.39453-.64453l.67969-.60938-.5-.49219.008-.008c-.14453-.16797-.22266-.39062-.20312-.625.0391-.47266.45703-.82422.92968-.78125.17578.0156.33203.0859.46485.1875l.0156.0156c.0274.0234.0547.0469.0781.0742l.49218.48047.88672-.78515c.16797-.1836.42188-.29297.69532-.26953.46875.043.82031.45703.77734.92968-.0234.2461-.14453.45313-.32422.59375l.008.008-.8125.72656.4961.48437v.004c.15625.17187.24218.40234.22265.65234m4.94922-8.83593v3.24218l-.008.008v.0156c0 .47266-.38281.85547-.85547.85547s-.85547-.38281-.85547-.85547v-2.96094h-2.17969v2.46485h-.004v.0156c0 .47266-.38281.85547-.85547.85547s-.85547-.38281-.85547-.85547v-.0156h-.004v-2.46485h-2.46484v2.46485h-.008c0 .004.004.008.004.0156 0 .47266-.38281.85547-.85546.85547-.47266 0-.85547-.38281-.85547-.85547v-.0156h-.004v-2.46485h-2.16797v2.9375l-.008.008s.004.008.004.0156c0 .47266-.38672.85547-.85547.85547-.47657 0-.85938-.38281-.85938-.85547 0-.008.004-.0156.004-.0234h-.004v-3.02343c-.008-.0625-.008-.1211-.008-.1836 0-.77734.62109-1.41797 1.39453-1.44531h4.54688v-.91797h.008c.0312-.44141.39844-.79297.85156-.79297.44922 0 .82031.35156.85156.79297h.008v.91797h4.58593c.78516 0 1.42578.62891 1.44532 1.41016zm-7.57812 18.3125h1.46093v.66406h-1.46093zm5.46875-.13672v-.008c0-.47265-.38672-.85937-.85547-.85937-.47656 0-.85547.38672-.85547.85937v3.27735h-2.15234v-.75391h.65234.0625c.47266 0 .85547-.38281.85547-.85547v-2.38281c-.0117-.45312-.36719-.81641-.81641-.83984v-.0156h-3.22265c-.47266 0-.85547.38281-.85547.85547v2.33984h.004c-.004.0156-.004.0274-.004.043 0 .44532.33984.8125.76953.85547h.83984v.75391h-2.1875v-3.26953h-.00825v-.008c0-.47265-.38281-.85937-.85547-.85937s-.85547.38672-.85547.85937v3.44141h.004c-.004.0352-.004.0664-.004.10547 0 .79687.64844 1.44531 1.44922 1.44531h2.45703v.63281h-.90625v.004c-.47656.0117-.85937.39063-.85937.85156 0 .46485.38281.84375.85937.85547v.004h1.23828v-.004c.75391-.0351 1.35547-.64062 1.38282-1.39844v-.94531h2.48046v-.004c.74219-.0312 1.33594-.61719 1.38282-1.35547h.004v-3.625h-.004" fill="#77113c"/></g><g clip-path="url(#b)" transform="translate(-231.33984 -275.80859)"><path d="m256.66797 381.74219c-.008-.0156-.67969-.28125-.67969-.28125s-.29687 5.26172-.37891 6.00781c-.082.74609-.17578.99219-1.46875.99219-1.30468 0-1.52343-.0274-1.52343-1.03125v-12.5c.13281-.10157 1.27734-.98828 1.27734-.98828l-3.10547-3.61719-1.92187 2.33594h-4.63282c.0391-1.35157.22266-8.17188.22266-8.17188l-3.60547-.14062s-.0781 5.35156-.12109 8.3125h-7.82031l.26562 1.39453h7.53516c-.26172 9.3125-1.51563 13.37109-9.3711 16.91797.008.004.82813.69921.82422.68359 9.92578-3.69141 11.53906-8.6875 12.00781-17.60156h4.97657v14.53906c0 2.50391 1.32812 2.94922 5.07812 2.94922h.0352c1.54297 0 3.28906 0 4.20703-.91406.42187-.42579.65234-1.01954.63281-1.91797-1.47265-.0859-1.88281-2.54688-2.43359-6.96875m68.83984-6.7461c1.04297-1.0039 2.66016-2.46875 3.38672-5.51562.61328.13672 1.5625.45312 1.5625.45312s-.004.76172-.008 1.05078h13.4375c1.70703-1.83984 3.21875-6.98828 3.21875-6.98828s2.76562 1.41797 3.64453 2.26172c-.48047 1.04688-3.25391 3.74219-5 4.72656h4.09766l2.25-1.96484 3.24218 4.10938s-1.71093.5-1.80468.52734c-.0703.0742-3.41016 3.58594-3.41016 3.58594s-.52734-.71094-.70313-1.09375c.44922-1.10938.9336-2.65235 1.01172-3.8086-.004-.004-.008-.008-.0117-.0117h-20.02343c-.14453 1.54297-.56641 3.80469-1.66407 5.375-1.26562-.94921-2.05859-1.59765-3.22656-2.70703m25.67188 4.20703 3.09765 3.06641-.63672.66406h-11.72656v6.38282c0 .61328-.21484 1.29296-.6289 1.71093-1.01563 1.01563-3.72657.8125-3.72657.8125s-.15234-.80078-.58984-1.26562c-.36328-.38672-2.41797-1.38281-3.66797-1.71094-.0234-.0898-.23828-.78906-.26172-.92187 1.78906.26171 3.84766.51562 5.10156.59765.13282.008.3086-.0625.3086-.2539v-5.35157h-11.53125l-.26563-1.39062h11.79688v-2.62891l3.01953.25c.58594-.57031 1.30469-1.47656 2.00781-2.8125h-11.98437l-.26563-1.27734c.0234-.0234 10.09766-.004 12.83203 0l1.60157-1.74219 3.375 3.625s-.25391.1875-2.30079.66797c-1.91015 1.02734-3.46484 1.85156-4.82031 2.55078v1.36719h7.3125zm-21.20703-13.75781c.28125-.42969.39843-.57812.6289-.91797 1.39453.58985 4.25391 2.13282 5.90235 3.69141-.85157 1.0625-1.78907 1.88672-3.0625 2.68359-.56641-1.14453-1.46875-3.28515-3.46875-5.45703m6.89453-.3789c.26562-.32813.53125-.62891.73047-.84375 1.75781.84375 4.49218 2.75781 5.45312 4.21093-.71094.75391-1.83984 1.625-3.32422 2.38672-.57031-1.53906-1.01953-3.41406-2.85937-5.7539m-27.48828 9.21093c-.0117-.0117 11.35937 0 11.35937 0l.65234-.62109-3.10937-3.25-1.93359 2.46484h-7.17188c.0508-1.24218.0547-2.46875.0586-5.04297l.004-3.52734-3.46484-.14844s-.0195 5.39844-.10157 8.71875h-11.28906l.26563 1.40625h10.98437c-.008.21094-.0234.59766-.0234.59766-.39062 10.62891-10.61718 15.47266-12.08203 16.19922.11719.125.6875.67187.73438.70312 11.02734-3.85937 13.71484-10.30078 14.60937-15.70312 1.0625 6.29687 5.32422 13.16797 9.7461 15.74609.86328-.72656 2.39062-1.89062 3.39843-2.48437-2.40234-1.49219-10.35937-5.80078-12.63671-15.0586m-41.78907.50391c0 9.07422-.51172 12.24219-4.48047 16.21875-.0117-.0234.66016.72266.67969.74609 4.55469-3.60547 7.20703-6.6289 7.20703-16.5039v-10.57813l-3.40625-.15234zm-4.98437 4.35937-.043.0625.0508.0547c.1875.20703 1.46094 1.53516 2.625 2.38281l.0977.0703.0469-.11328c1.22656-2.96094 1.42969-8.69922 1.42578-10.3125.004-.008-.63672-.73047-.64062-.73438-.47656 2.92188-1.90625 6.125-3.5625 8.58984m14.04687 10.02735 3.39063-.23828v-23.71094l-3.39063-.14844zm-5.17578-17.75781c1.20703 3.05859 1.85547 7.25 2.03906 9.62109 1.14454-.71484 2.50391-2.20703 2.91016-2.87109-.53906-1.39063-2.09766-4.53907-4.44922-7.25782-.0234.0156-.51172.5-.5.50782m9.23047.0508c1.19141 3.30859 1.5 8.60156 1.64453 9.4414 1.30078-.71875 2.08985-1.51172 3.01953-2.51562-.92187-3.17578-2.98828-6.0586-4.17968-7.46875.0117-.004-.48438.54297-.48438.54297m5.125-6.94922 3.41016.15234v26.75391l-3.41016.3164z" fill="#231f20"/></g><g clip-path="url(#c)" transform="translate(-231.33984 -275.80859)"><path d="m348.88281 402.37891 1.51172-2.32032-.73437-.35156v-.29297h2.35546v.29297l-.82421.35156-1.95313 2.875v2.83203l1.15625.36329v.29687h-3.66797v-.28516l1.15625-.375v-2.5664l-1.98828-3.14063-.78516-.35156v-.29297h3.08594v.29297l-.7539.35156zm-6.91406-2.4375v5.82421l1.15625.36329v.29687h-3.66797v-.29687l1.15625-.36329v-5.82421h-1.30469l-.51172 1.46093h-.43359v-1.98828h5.85547v1.98828h-.44141l-.52343-1.46093zm-7.07813 5.82421v-5.6914l-.88281-.36719v-.29297h3.13281v.29297l-.88281.36719v5.6914l.88281.36329v.29687h-3.13281v-.29687zm-6.6875.35547v-1.73437h.47266l.54688 1.45703c.21875.0547.29296.0547.63281.0547 1.05859 0 1.54297-.32422 1.54297-1.03907 0-.46093-.16016-.67187-.82032-1.11328l-1.1875-.77734c-.78906-.51563-1.13671-1.0625-1.13671-1.77734 0-1.13282.9375-1.88282 2.3789-1.88282.36719 0 .61719.043 1.15235.16797l.58984.13672.16797.0312v1.70313h-.44922l-.52734-1.39844c-.21094-.0625-.27344-.0703-.60938-.0703-1.00781 0-1.49219.3125-1.49219.96484 0 .43359.125.58984.85157 1.0625l1.16406.75781c.57812.375.72656.5.90625.77735.19922.29296.3125.71093.3125 1.10156 0 1.14844-.95313 1.93359-2.34375 1.93359-.38672 0-1.30078-.14844-2.15235-.35547m-5.41796-3.45703h.48437c.73438 0 1.23828-.58984 1.23828-1.42969 0-.83203-.48437-1.34765-1.26172-1.34765h-.46093zm0 .46094v2.64062l.8789.36329v.29687h-3.1289v-.29687l.88281-.36329v-5.6914l-.88281-.36719v-.29297h3.1289c.85547 0 1.27344.11719 1.67188.45313.39062.30468.57812.73437.57812 1.25 0 .94531-.58594 1.6289-1.57422 1.82812l1.9336 2.83985.85156.34375v.29687h-2.03125l-2.08984-3.30078zm-6.85547.0117v2.8164h2.21875l.60937-1.19921h.42969l-.125 1.67187h-5.37891v-.29687l.88282-.36329v-5.6914l-.88282-.36719v-.29297h5.32813v1.67969h-.41406l-.52344-1.20703h-2.14453v2.72265h1.76953l.375-.94531h.42187v2.35547h-.42187l-.375-.88281zm-7.40235 3.39453-2.49218-6.46484-.8086-.35938v-.29297h3.03906v.29297l-.80078.35938 1.38672 3.66796c.14844.36719.21094.57813.33594 1.03125l1.91406-4.69921-.80078-.35938v-.29297h2.40625v.29297l-.80859.35938-2.83594 6.46484zm-6.53906-.76563v-5.6914l-.88281-.36719v-.29297h3.13281v.29297l-.88281.36719v5.6914l.88281.36329v.29687h-3.13281v-.29687zm-7.77344-4.82812v4.82812l.84375.36329v.29687h-2.41015v-.29687l.88281-.36329v-5.6914l-.88281-.36719v-.29297h2.0625l3.58203 4.73828v-4.07812l-.82813-.36719v-.29297h2.39453v.29297l-.88281.36719v6.45703h-.53515zm-7.75781-.86328v4.25781c0 1.13672.49609 1.67188 1.56641 1.67188.50781 0 .89453-.10547 1.17968-.3125.39844-.3086.54297-.71485.54297-1.4961v-4.12109l-.8789-.36719v-.29297h2.5625v.29297l-.89063.36719v3.93359c0 .98828-.27734 1.59766-.89453 2.03906-.51562.35938-1.13672.53516-1.91406.53516-1.69141 0-2.625-.80859-2.625-2.23828v-4.26953l-.89453-.36719v-.29297h3.08984v.29297zm-11.53906 0v4.25781c0 1.13672.49219 1.67188 1.5664 1.67188.50391 0 .89063-.10547 1.17579-.3125.40234-.3086.54687-.71485.54687-1.4961v-4.12109l-.88281-.36719v-.29297h2.5664v.29297l-.89453.36719v3.93359c0 .98828-.27343 1.59766-.89453 2.03906-.51172.35938-1.13281.53516-1.91015.53516-1.69532 0-2.62891-.80859-2.62891-2.23828v-4.26953l-.89453-.36719v-.29297h3.08984v.29297zm-8.73438 2.95703v2.73437l.88282.36329v.29687h-3.12891v-.29687l.87891-.36329v-5.6914l-.87891-.36719v-.29297h3.12891v.29297l-.88282.36719v2.42969h3.02735v-2.42969l-.88282-.36719v-.29297h3.13282v.29297l-.88282.36719v5.6914l.88282.36329v.29687h-3.13282v-.29687l.88282-.36329v-2.73437zm-8.05468 3.08984v-1.73437h.47265l.54688 1.45703c.21875.0547.29297.0547.63281.0547 1.05859 0 1.54297-.32422 1.54297-1.03907 0-.46093-.16016-.67187-.82031-1.11328l-1.1875-.77734c-.78907-.51563-1.13282-1.0625-1.13282-1.77734 0-1.13282.9336-1.88282 2.375-1.88282.36719 0 .61719.043 1.15625.16797l.58594.13672.16797.0312v1.70313h-.44922l-.52734-1.39844c-.21094-.0625-.27344-.0703-.60938-.0703-1.01172 0-1.49219.3125-1.49219.96484 0 .43359.125.58984.85157 1.0625l1.16797.75781c.57421.375.72265.5.90234.77735.19922.29296.3125.71093.3125 1.10156 0 1.14844-.95313 1.93359-2.34375 1.93359-.38672 0-1.30078-.14844-2.15234-.35547m-6.02344-6.04687v4.25781c0 1.13672.49219 1.67188 1.5625 1.67188.50781 0 .89453-.10547 1.17969-.3125.39843-.3086.54687-.71485.54687-1.4961v-4.12109l-.88281-.36719v-.29297h2.5625v.29297l-.89063.36719v3.93359c0 .98828-.27343 1.59766-.89453 2.03906-.51562.35938-1.13672.53516-1.91406.53516-1.69141 0-2.62891-.80859-2.62891-2.23828v-4.26953l-.89062-.36719v-.29297h3.08984v.29297zm-6.26563 2.30469 1.51172-2.32032-.73437-.35156v-.29297h2.35547v.29297l-.82032.35156-1.95703 2.875v2.83203l1.15625.36329v.29687h-3.66797v-.28516l1.15625-.375v-2.5664l-1.98437-3.14063-.78906-.35156v-.29297h3.08984v.29297l-.75781.35156zm-8.78125.45312 2.41797-2.80859-.65234-.31641v-.29297h2.51172v.29297l-.88282.35156-2.19531 2.26563 2.375 3.44922.86328.35547v.29687h-2.01953zm-1.375 2.93359v-5.6914l-.88281-.36719v-.29297h3.07813v.29297l-.90235.36719.0312 5.6914.8711.36329v.29687h-3.07813v-.29687l.88281-.36329" fill="#231f20"/></g></svg>