<svg xmlns="http://www.w3.org/2000/svg" viewBox="0 0 236.22 48.93"><defs><style>.cls-1{fill:#231815;}.cls-2{fill:#e60012;}</style></defs><g id="レイヤー_2" data-name="レイヤー 2"><g id="レイヤー_1-2" data-name="レイヤー 1"><g id="logo"><g id="t"><path class="cls-1" d="M95,12.46,97.15,17H85.45v-2.3l3-3.63H91.4l-2.78,3.32v.34h4.72l-1.07-2.29Zm1.42,5.35v9.61a1.65,1.65,0,0,1-1.65,1.66H91.72V27h2.09v-1H88.69v3H86V17.81Zm-7.77,3.11h5.12V19.85H88.69ZM93.81,24V23H88.69V24Zm14.35-8.46V13.22H100.7V11H98V18a2.24,2.24,0,0,0,2.22,2.23h8V17.85H100.7V15.57Zm0,8.84V22.06H100.7v-1.4H98v6.19a2.23,2.23,0,0,0,2.22,2.22h8V26.72H100.7V24.41ZM90.73,29.92h-3a17.59,17.59,0,0,1-2.89,4.78h3.67A14.34,14.34,0,0,0,90.73,29.92Zm4.52,0H92.41a20.71,20.71,0,0,1,.89,4.78h3.29A11.85,11.85,0,0,0,95.25,29.92Zm5.64,0H98.08a20.66,20.66,0,0,1,1.33,4.78h3.22A15.64,15.64,0,0,0,100.89,29.92Zm5.46,0h-2.78a22.77,22.77,0,0,1,1.82,4.78h3.21A14.84,14.84,0,0,0,106.35,29.92Z"/><path class="cls-1" d="M182,31.59a117,117,0,0,0,.69-12.84h3.67V16h-9.9V11h-3.08v5H163.5v2.74h3.6a117,117,0,0,0,.69,12.84h-4.74v2.74h23.8V31.59Zm-11.6-12.84h8.95a113.69,113.69,0,0,1-.68,12.84h-7.58A117,117,0,0,1,170.43,18.75Z"/><path class="cls-1" d="M160.93,28.41H150.88V34.7h-3V28.41h-9.5V13.61h3.07V26h19.5Zm-2.09-3.67H143V12.2h15.81Zm-12.92-9.07h10V14.58h-10Zm0,3.41h10V17.93h-10Zm0,3.41h10V21.33h-10Zm-.13,6.72H142.6a5.23,5.23,0,0,1-4.13,2.89v2.4A8.13,8.13,0,0,0,145.79,29.21Zm14.42,5.29V32.1a5.23,5.23,0,0,1-4.13-2.89H152.9A8.13,8.13,0,0,0,160.21,34.5Z"/><path class="cls-1" d="M130.89,24.94a26.37,26.37,0,0,1-3.36-6.19h7V16h-9.84V11h-2.9v5h-9.84v2.74h7a26.66,26.66,0,0,1-3.35,6.19,18.62,18.62,0,0,1-4.35,4.15V32.5a19.47,19.47,0,0,0,6.69-5.83A24.4,24.4,0,0,0,121.75,19v9.32h-4.42v2.74h4.42v3.63h2.9V31.08h4.42V28.34h-4.42V19a24.51,24.51,0,0,0,3.89,7.69,19.55,19.55,0,0,0,6.7,5.83V29.09A18.43,18.43,0,0,1,130.89,24.94Z"/><path class="cls-1" d="M236.22,28.78h-8.9v3.8a2.14,2.14,0,0,1-2.13,2.13h-4.95V32.3h4.14V28.78H214.19V26.3h10.19V24.69l3.7-1.92v-.4h-9.54V20h13.23v2.41a14.87,14.87,0,0,1-4.45,3.31v.62h8.9ZM219.93,11h-2.8l1.58,4.16h2.79Zm5.32,0h-2.79L224,15.17h2.79Zm5.95,4.84L233.52,11h-3l-2.32,4.84h-14v6.63H217V18.42H233.4v4.06h2.82V15.85Z"/><path class="cls-1" d="M205.47,26.1a20.81,20.81,0,0,1-3.32-7.35h9.42V16h-9.43V11h-3.35v5h-9.43v2.74h9.3a20.81,20.81,0,0,1-3.32,7.35,17.62,17.62,0,0,1-6.12,5.44v3.22A23.54,23.54,0,0,0,197,28.65a21.68,21.68,0,0,0,3.4-6.12,22,22,0,0,0,3.41,6.12,23.54,23.54,0,0,0,7.78,6.11V31.54A17.62,17.62,0,0,1,205.47,26.1Z"/></g><g id="s"><rect class="cls-1" y="11.21" width="35.88" height="35.88"/><polygon class="cls-2" points="35.88 47.09 0 47.09 47.09 0 82.97 0 35.88 47.09"/></g><g id="e"><path class="cls-1" d="M86,39.14h2.92c1.48,0,2.06.9,2.06,2.31a2,2,0,0,1-2.16,2.28h-1.2v3.15H86Zm1.62,3.4h.9c.49,0,.82-.53.82-1s-.17-1.17-.9-1.17h-.82Z"/><path class="cls-1" d="M93.13,41.46v.7h0a1.37,1.37,0,0,1,1.4-.8v1.35c-1.33-.09-1.35.68-1.35,1.22v3H91.7V41.46Z"/><path class="cls-1" d="M96.47,44.41c0,.65,0,1.61.69,1.61s.64-.51.64-1h1.53a1.92,1.92,0,0,1-.57,1.4,2.29,2.29,0,0,1-1.6.53C95.21,47,95,45.8,95,44.1c0-1.48.21-2.74,2.21-2.74s2.26,1.32,2.21,3Zm1.39-.84c0-.53,0-1.28-.7-1.28s-.69.82-.69,1.28Z"/><path class="cls-1" d="M102.57,40.07c-.61,0-.74.19-.74.74v.65h.71v.94h-.71v4.48h-1.51V42.4h-.67v-.94h.68c0-1.55-.14-2.38,1.71-2.38a4.71,4.71,0,0,1,.53,0Z"/><path class="cls-1" d="M104.43,44.41c0,.65,0,1.61.69,1.61s.64-.51.64-1h1.53a1.92,1.92,0,0,1-.57,1.4,2.29,2.29,0,0,1-1.6.53c-2,0-2.21-1.19-2.21-2.89,0-1.48.21-2.74,2.21-2.74s2.26,1.32,2.21,3Zm1.38-.84c0-.53,0-1.28-.69-1.28s-.69.82-.69,1.28Z"/><path class="cls-1" d="M111,43.39c0-.8-.2-1.07-.67-1.07-.65,0-.7.57-.7,1.7,0,1.65.14,2,.7,2s.69-.43.69-1.13h1.52c0,1.46-.8,2.1-2.21,2.1-2,0-2.21-1.19-2.21-2.89,0-1.48.21-2.74,2.21-2.74,1.39,0,2.19.62,2.19,2Z"/><path class="cls-1" d="M112.77,41.46h.61v-.85l1.51-.68v1.53h.78v.94h-.78v2.89c0,.41,0,.68.48.68a1.1,1.1,0,0,0,.27,0v.93a6.59,6.59,0,0,1-.78,0c-1.31,0-1.48-.86-1.48-1.2V42.4h-.61Z"/><path class="cls-1" d="M118.82,46.33h0a1.33,1.33,0,0,1-1.27.66,1.23,1.23,0,0,1-1.35-1.18V41.46h1.51v3.76c0,.48.08.83.57.83s.57-.35.57-.83V41.46h1.51v4.35c0,.35,0,.72,0,1.07h-1.56Z"/><path class="cls-1" d="M122.77,41.46v.7h0a1.36,1.36,0,0,1,1.4-.8v1.35c-1.33-.09-1.35.68-1.35,1.22v3h-1.51V41.46Z"/><path class="cls-1" d="M128.82,45.87c0,.34.05.68.08,1h-1.41l-.06-.72h0A1.5,1.5,0,0,1,126,47c-1,0-1.44-.78-1.44-1.73,0-1.79,1.39-1.87,2.79-1.84V43c0-.46-.06-.8-.61-.8s-.57.4-.57.83h-1.48a1.5,1.5,0,0,1,.56-1.32,2.34,2.34,0,0,1,1.42-.35c1.92,0,2.16.82,2.16,1.81ZM126,45.2c0,.38.07.85.56.85.89,0,.75-1.2.75-1.79C126.59,44.3,126,44.23,126,45.2Z"/><path class="cls-1" d="M131.53,39.14v7.74H130V39.14Z"/><path class="cls-1" d="M141.25,39.14v5.49A2.31,2.31,0,0,1,138.62,47c-1.78,0-2.64-.92-2.64-2.38V39.14h1.62v5.38c0,1,.4,1.33,1,1.33s1-.47,1-1.33V39.14Z"/><path class="cls-1" d="M143.81,42h0a1.17,1.17,0,0,1,.54-.5,1.58,1.58,0,0,1,.74-.15,1.23,1.23,0,0,1,1.35,1.18v4.34H145V43.15c0-.48-.09-.86-.57-.86s-.57.38-.57.86v3.73H142.3V41.46h1.51Z"/><path class="cls-1" d="M149.11,39.14v1.19H147.6V39.14Zm0,7.74H147.6V41.46h1.51Z"/><path class="cls-1" d="M149.74,41.46h1.53l.77,4.07h0l.79-4.07h1.48l-1.49,5.42h-1.66Z"/><path class="cls-1" d="M156.22,44.41c0,.65,0,1.61.69,1.61s.64-.51.64-1h1.53a1.88,1.88,0,0,1-.58,1.4,2.27,2.27,0,0,1-1.59.53c-2,0-2.21-1.19-2.21-2.89,0-1.48.21-2.74,2.21-2.74s2.26,1.32,2.2,3Zm1.38-.84c0-.53,0-1.28-.69-1.28s-.69.82-.69,1.28Z"/><path class="cls-1" d="M161.43,41.46v.7h0a1.38,1.38,0,0,1,1.41-.8v1.35c-1.33-.09-1.35.68-1.35,1.22v3H160V41.46Z"/><path class="cls-1" d="M164.56,45.14a1.5,1.5,0,0,0,.08.66c.09.17.25.25.55.25a.53.53,0,0,0,.56-.55c0-1.15-2.66-.89-2.66-2.62,0-1.17,1.15-1.52,2.13-1.52s2,.49,1.88,1.66h-1.48a1,1,0,0,0-.15-.7.55.55,0,0,0-.39-.12c-.33,0-.52.22-.52.58,0,.86,2.67.82,2.67,2.56,0,.94-.78,1.65-2,1.65s-2.2-.34-2.11-1.85Z"/><path class="cls-1" d="M169.58,39.14v1.19h-1.51V39.14Zm0,7.74h-1.51V41.46h1.51Z"/><path class="cls-1" d="M170.12,41.46h.61v-.85l1.52-.68v1.53H173v.94h-.78v2.89c0,.41,0,.68.48.68a1.14,1.14,0,0,0,.27,0v.93a6.8,6.8,0,0,1-.79,0c-1.31,0-1.48-.86-1.48-1.2V42.4h-.61Z"/><path class="cls-1" d="M174.49,46.92,173,41.46h1.5l.77,3.81h0l.82-3.81h1.46l-2.09,7.47h-1.59Z"/><path class="cls-1" d="M181,44.1c0-1.48.21-2.74,2.21-2.74s2.21,1.26,2.21,2.74c0,1.7-.26,2.89-2.21,2.89S181,45.8,181,44.1Zm2.9-.08c0-1.13,0-1.7-.69-1.7s-.7.57-.7,1.7c0,1.65.14,2,.7,2S183.91,45.67,183.91,44Z"/><path class="cls-1" d="M188.64,40.07c-.62,0-.74.19-.74.74v.65h.7v.94h-.7v4.48h-1.52V42.4h-.67v-.94h.68c0-1.55-.14-2.38,1.71-2.38l.54,0Z"/><path class="cls-1" d="M196.09,39.14h1.78l-2.17,3.47,2.17,4.27h-1.82l-1.86-4h0v4h-1.62V39.14h1.62v3.31h0Z"/><path class="cls-1" d="M201,46.33h0a1.34,1.34,0,0,1-1.27.66,1.24,1.24,0,0,1-1.36-1.18V41.46h1.52v3.76c0,.48.08.83.56.83s.57-.35.57-.83V41.46h1.51v4.35c0,.35,0,.72.06,1.07H201Z"/><path class="cls-1" d="M204.91,42h0a1.5,1.5,0,0,1,2.49,0,1.59,1.59,0,0,1,1.4-.68,1.23,1.23,0,0,1,1.35,1.18v4.34h-1.51V43.15c0-.48-.08-.86-.57-.86s-.57.38-.57.86v3.73H206V43.15c0-.48-.08-.86-.56-.86s-.57.38-.57.86v3.73H203.4V41.46h1.51Z"/><path class="cls-1" d="M215.17,45.87c0,.34.05.68.08,1h-1.41l-.06-.72h0a1.5,1.5,0,0,1-1.42.83c-1.05,0-1.44-.78-1.44-1.73,0-1.79,1.39-1.87,2.79-1.84V43c0-.46-.06-.8-.61-.8s-.57.4-.57.83H211a1.5,1.5,0,0,1,.56-1.32,2.34,2.34,0,0,1,1.42-.35c1.92,0,2.16.82,2.16,1.81Zm-2.79-.67c0,.38.07.85.56.85.89,0,.75-1.2.75-1.79C212.94,44.3,212.38,44.23,212.38,45.2Z"/><path class="cls-1" d="M217.63,42h0a1.5,1.5,0,0,1,2.49,0,1.59,1.59,0,0,1,1.4-.68,1.24,1.24,0,0,1,1.36,1.18v4.34h-1.52V43.15c0-.48-.08-.86-.57-.86s-.56.38-.56.86v3.73h-1.48V43.15c0-.48-.09-.86-.57-.86s-.57.38-.57.86v3.73h-1.51V41.46h1.51Z"/><path class="cls-1" d="M223.66,44.1c0-1.48.21-2.74,2.21-2.74s2.21,1.26,2.21,2.74c0,1.7-.26,2.89-2.21,2.89S223.66,45.8,223.66,44.1Zm2.91-.08c0-1.13-.06-1.7-.7-1.7s-.7.57-.7,1.7c0,1.65.14,2,.7,2S226.57,45.67,226.57,44Z"/><path class="cls-1" d="M228.35,41.46H229v-.85l1.51-.68v1.53h.78v.94h-.78v2.89c0,.41,0,.68.48.68a1.1,1.1,0,0,0,.27,0v.93a6.59,6.59,0,0,1-.78,0c-1.31,0-1.48-.86-1.48-1.2V42.4h-.61Z"/><path class="cls-1" d="M231.62,44.1c0-1.48.21-2.74,2.21-2.74S236,42.62,236,44.1c0,1.7-.26,2.89-2.21,2.89S231.62,45.8,231.62,44.1Zm2.91-.08c0-1.13-.06-1.7-.7-1.7s-.7.57-.7,1.7c0,1.65.14,2,.7,2S234.53,45.67,234.53,44Z"/></g></g></g></g></svg>