<svg xmlns="http://www.w3.org/2000/svg" version="1.0" width="986" height="768" viewBox="-2.7954 -2.7954 126.7708 98.7708">
  <path d="M0 93.18h121.18V0H0v93.18z" style="fill:#d90013;fill-opacity:1;fill-rule:nonzero;stroke:none"/>
  <path d="M10.40375 59.5625c-.4575 0-.75.33125-.75.755 0 .425.415.7075.84125.7075h2.14125c1.27625 0 1.9825.72875 2.01375 1.77125.00625 1.11875-.7275 1.9675-2.01375 1.9675H8.3375V63.6325h3.73125c.51-.0125.8975-.23375.8975-.77875 0-.5425-.3875-.745-1.115-.745h-1.9525c-.58875 0-1.1725-.1975-1.53375-.58625-.2775-.30125-.4125-.73625-.4325-1.1525-.0325-1.14875.86-1.91375 2.105-1.9225h4.16875v1.115M16.71125 61.62625c0-1.22875.27-3.17875 2.9675-3.17875h2.79875v1.115h-2.57625c-1.15 0-1.455.835-1.455 1.5h4.07625v1.115h-4.07625c0 .70125.305 1.46125 1.455 1.46125h2.62125V64.745h-2.84375c-2.6975 0-2.9675-1.86625-2.9675-3.11875M27.33125 58.44625 28.92 63.425l1.565-4.97875h2.135v6.2975h-1.31625V59.9425L29.765 64.74375h-1.6575L26.58 59.9425v4.80125h-1.32375v-6.2975M35.6275 64.6925h1.63775V58.422H35.6275v6.2705zM39.8675 61.66375c0-1.86.7375-3.2075 2.74375-3.2075h2.7475v1.11625h-2.38c-1.05875 0-1.47375.84375-1.47375 2.09125 0 1.24.415 1.985 1.47375 1.985h2.38V64.77h-2.7475c-2.00625 0-2.74375-1.265-2.74375-3.10625M82.735 61.66375c0-1.86.7475-3.2075 2.765-3.2075h2.73625v1.11625h-2.39c-1.0425 0-1.4525.84375-1.4525 2.09125 0 1.24.41 1.985 1.4525 1.985h2.39V64.77H85.5c-2.0175 0-2.765-1.265-2.765-3.10625M49.05625 61.65375c0 1.40875.5175 2.26 1.8475 2.26 1.3325 0 1.795-.85125 1.795-2.26 0-1.435-.4625-2.34375-1.795-2.34375-1.3475 0-1.8475.90875-1.8475 2.34375m-1.58625 0c0-1.86875.755-3.33875 3.43375-3.33875 2.68125 0 3.3825 1.3025 3.3825 3.33875 0 2.0225-.69125 3.24875-3.3825 3.24875-2.67875 0-3.43375-1.22625-3.43375-3.24875M58.665 58.45625l2.94125 4.7075v-4.7075h1.5125V64.77H61.145l-3.00375-4.62125v4.595H56.675v-6.2875M75.87 58.5275v3.9775c0 1.17125 1.015 1.365 1.5725 1.365.7825-.00875 1.58875-.19375 1.58875-1.365v-3.9875h1.5175v4.36125c0 1.6625-1.55875 2.11375-3.10625 2.11375-1.5525 0-3.0975-.45125-3.0975-2.11375V58.5275M96.37125 58.44625v1.115h-2.31v5.1825H92.6175v-5.1825h-2.265v-1.115M108.225 61.28375h1.97125c.7925 0 1.2125-.23375 1.2125-.8975 0-.725-.42-.9125-1.2125-.9125H108.225v1.81zm4.8475-.8975c0 .90375-.4975 1.595-1.54625 1.79125l1.7275 2.56625h-1.7275l-1.6375-2.45125H108.23v2.45125h-1.4675v-6.2975h4.35875c1.24375 0 1.95125.8 1.95125 1.94M68.9625 63.575H67.32v-4.0875h1.6425c1.04625 0 1.46375.84625 1.46375 2.08875 0 1.23875-.4175 1.99875-1.46375 1.99875m.3675-5.19h-3.46125v6.29625H69.33c2.00625 0 2.73875-1.255 2.73875-3.105 0-1.83625-.7325-3.19125-2.73875-3.19125M99.41 61.55625c0 1.42875.53 2.27875 1.8375 2.27875 1.34625 0 1.81625-.85 1.81625-2.27875 0-1.42625-.47-2.33625-1.81625-2.33625-1.3325 0-1.8375.91-1.8375 2.33625m-1.575 0c0-1.85.7425-3.3225 3.4125-3.3225 2.69875 0 3.39 1.31 3.39 3.3225 0 2.03125-.69125 3.27625-3.39 3.27625-2.67 0-3.4125-1.245-3.4125-3.27625M39.69 47.665c-.3575-.76-.4075-1.84-.4075-3.24125l.00375-5.54625c0-1.42625.03875-2.45625.39125-3.20625C40.4 34.105 42.02375 33.7375 44.25 33.7375c2.485 0 4.01875.35375 4.67125 1.93375.29.75.27875 1.78.29 3.20625v5.54625c0 1.38875.0375 2.48125-.32 3.24125-.7525 1.53125-2.435 1.89875-4.64125 1.89875-2.22625 0-3.83125-.34875-4.56-1.89875m-6.38375-9.7v7.195c0 5.16375 3.2675 7.35125 10.94375 7.35125 7.68875 0 10.95875-2.1875 10.95875-7.35125v-7.195c0-5.1475-3.27-7.34625-10.95875-7.34625-7.67625 0-10.94375 2.19875-10.94375 7.34625M8.2925 31.10125v20.825H14.37V35.025c0-.5575.065-1.06375.9025-1.185.25-.045 1.4725-.18625 3.21875-.18625 2.0775 0 3.22375.18625 4.11625.77375.725.49 1.105 1.145 1.11 2.74875.0275 1.31625-.155 2.44625-1 3.09375-1.19625.9125-4.10125.77875-5.885.77875v1.6825c0 1.13125.24125 1.39125.7875 2.10875.22875.295 5.915 7.08625 5.915 7.08625h7.12l-6.86-8.06875c.92-.18375 2.90875-.55875 4.14375-1.55625 1.24625-.99625 1.52-2.7225 1.52-5.0175 0-2.285-.54875-3.9175-1.66625-4.855-1.55125-1.32-3.7725-1.81-9.84875-1.81-3.66375 0-9.65125.4825-9.65125.4825M76.21125 31.08125v7.27625c0 .80125-.4575 1.07875-1.075 1.07875l-8.53125.01c-.64 0-1.0775-.24375-1.0775-1.08875v-7.27625H59.395v20.845h6.1325V44.1225c0-.83375.47-1.08 1.0775-1.08h8.5125c.63625 0 1.09375.23125 1.09375 1.08v7.80375h6.13125v-20.845M108.87875 31.3675c-2.4225-.7925-6.28375-.7475-8.9625-.7475-4.6225 0-10.29375.34875-12.76625.48v20.825h5.83625V34.7675c0-.3075.0675-.64875.5725-.67625.4575-.01875 2.3625-.05875 2.83625-.05875.5325 0 .6425.33875.6425.6625v17.22375h5.8325V34.65c0-.27125.09-.6175.615-.6175.7 0 1.5975.00875 2.05.105.81.1575 1.18125.525 1.38375 1.1525.18375.6025.1775 1.42625.1775 2.31375V51.925h5.80875V37.63c0-2.06375-.13-4.9725-4.02625-6.2625" style="fill:#fff;fill-opacity:1;fill-rule:nonzero;stroke:none"/>
</svg>
