<?xml version="1.0" encoding="UTF-8" standalone="no"?>
<!-- Created with Inkscape (http://www.inkscape.org/) -->

<svg
   xmlns:dc="http://purl.org/dc/elements/1.1/"
   xmlns:cc="http://creativecommons.org/ns#"
   xmlns:rdf="http://www.w3.org/1999/02/22-rdf-syntax-ns#"
   xmlns:svg="http://www.w3.org/2000/svg"
   xmlns="http://www.w3.org/2000/svg"
   version="1.1"
   width="715.74799"
   height="352.91339"
   id="svg4221">
  <defs
     id="defs4223" />
  <metadata
     id="metadata4226">
    <rdf:RDF>
      <cc:Work
         rdf:about="">
        <dc:format>image/svg+xml</dc:format>
        <dc:type
           rdf:resource="http://purl.org/dc/dcmitype/StillImage" />
        <dc:title></dc:title>
      </cc:Work>
    </rdf:RDF>
  </metadata>
  <g
     transform="translate(-20.104895,-373.23449)"
     id="layer1">
    <g
       transform="matrix(4.9798072,0,0,4.9798072,-1439.8163,-2154.0956)"
       id="g4374">
      <path
         d="m 339.11188,508.21835 -5.78625,0 0,1.98875 5.78625,0 0,-1.98875 z"
         id="path3873"
         style="fill:#5bbaec;fill-opacity:1;fill-rule:nonzero;stroke:none" />
      <g
         transform="matrix(1.25,0,0,-1.25,322.52763,521.03647)"
         id="g3875">
        <path
           d="m 0,0 0.006,2.008 -4.651,0 L -4.645,0 0,0 z"
           id="path3877"
           style="fill:#5bbaec;fill-opacity:1;fill-rule:nonzero;stroke:none" />
      </g>
      <g
         transform="matrix(1.25,0,0,-1.25,322.51663,524.70347)"
         id="g3879">
        <path
           d="m 0,0 0.005,2.011 -4.641,0 L -4.636,0 0,0 z"
           id="path3881"
           style="fill:#5bbaec;fill-opacity:1;fill-rule:nonzero;stroke:none" />
      </g>
      <g
         transform="matrix(1.25,0,0,-1.25,322.53501,517.3731)"
         id="g3883">
        <path
           d="m 0,0 0.004,2.011 -4.654,0 L -4.65,0 0,0 z"
           id="path3885"
           style="fill:#5bbaec;fill-opacity:1;fill-rule:nonzero;stroke:none" />
      </g>
      <g
         transform="matrix(1.25,0,0,-1.25,316.72201,511.36122)"
         id="g3887">
        <path
           d="m 0,0 0,-1.883 4.654,0 L 4.658,0 0,0 z"
           id="path3889"
           style="fill:#5bbaec;fill-opacity:1;fill-rule:nonzero;stroke:none" />
      </g>
      <g
         transform="matrix(1.25,0,0,-1.25,322.51425,528.3656)"
         id="g3891">
        <path
           d="m 0,0 0.002,2.011 -4.636,0 L -4.634,0 0,0 z"
           id="path3893"
           style="fill:#5bbaec;fill-opacity:1;fill-rule:nonzero;stroke:none" />
      </g>
      <g
         transform="matrix(1.25,0,0,-1.25,333.32475,529.52272)"
         id="g3895">
        <path
           d="M 0,0 0,-1.438 C 0,-1.59 0,-1.784 -0.008,-2.003 l 4.628,0 c 0.003,0.187 0.009,0.376 0.009,0.565 L 4.629,0 0,0"
           id="path3897"
           style="fill:#5bbaec;fill-opacity:1;fill-rule:nonzero;stroke:none" />
      </g>
      <g
         transform="matrix(1.25,0,0,-1.25,331.43513,536.8421)"
         id="g3899">
        <path
           d="m 0,0 c -0.636,-0.532 -1.538,-0.89 -2.814,-0.89 -1.284,0 -2.179,0.358 -2.817,0.89 l -5.455,0 c 0.258,-0.681 0.556,-1.218 0.869,-1.631 0.094,-0.124 0.195,-0.254 0.304,-0.377 l 14.198,0 c 0.141,0.166 0.278,0.336 0.403,0.507 0.33,0.462 0.576,0.969 0.779,1.501 L 0,0"
           id="path3901"
           style="fill:#5bbaec;fill-opacity:1;fill-rule:nonzero;stroke:none" />
      </g>
      <g
         transform="matrix(1.25,0,0,-1.25,322.50563,531.32085)"
         id="g3903">
        <path
           d="m 0,0 0.007,1.438 -4.634,0 0,-1.438 c 0,-0.194 10e-4,-0.38 0.006,-0.564 l 4.63,0 C 0.005,-0.346 0,-0.151 0,0"
           id="path3905"
           style="fill:#5bbaec;fill-opacity:1;fill-rule:nonzero;stroke:none" />
      </g>
      <g
         transform="matrix(1.25,0,0,-1.25,323.42976,535.69097)"
         id="g3907">
        <path
           d="m 0,0 c -0.379,0.638 -0.563,1.363 -0.652,2.01 l -4.653,0 C -5.236,1.248 -5.119,0.586 -4.969,0 L 0,0"
           id="path3909"
           style="fill:#5bbaec;fill-opacity:1;fill-rule:nonzero;stroke:none" />
      </g>
      <path
         d="m 333.32563,513.7146 5.78625,0 0,-2.35375 -5.78625,0 0,2.35375 z"
         id="path3911"
         style="fill:#5bbaec;fill-opacity:1;fill-rule:nonzero;stroke:none" />
      <g
         transform="matrix(1.25,0,0,-1.25,322.54725,510.20635)"
         id="g3913">
        <path
           d="m 0,0 0.003,1.591 -4.663,0 L -4.66,0 0,0 z"
           id="path3915"
           style="fill:#5bbaec;fill-opacity:1;fill-rule:nonzero;stroke:none" />
      </g>
      <g
         transform="matrix(1.25,0,0,-1.25,320.1925,540.50548)"
         id="g3917">
        <path
           d="m 0,0 c 1.359,-1.166 3.446,-2.281 6.211,-2.281 2.566,0 4.67,0.947 6.177,2.281 L 0,0"
           id="path3919"
           style="fill:#5bbaec;fill-opacity:1;fill-rule:nonzero;stroke:none" />
      </g>
      <path
         d="m 333.32563,517.37335 5.78625,0 0,-2.51375 -5.78625,0 0,2.51375 z"
         id="path3921"
         style="fill:#5bbaec;fill-opacity:1;fill-rule:nonzero;stroke:none" />
      <path
         d="m 333.32563,528.36585 5.78625,0 0,-2.51375 -5.78625,0 0,2.51375 z"
         id="path3923"
         style="fill:#5bbaec;fill-opacity:1;fill-rule:nonzero;stroke:none" />
      <g
         transform="matrix(1.25,0,0,-1.25,333.21125,533.17885)"
         id="g3925">
        <path
           d="m 0,0 c -0.085,-0.646 -0.27,-1.372 -0.647,-2.01 l 4.982,0 C 4.504,-1.357 4.608,-0.679 4.661,0 L 0,0"
           id="path3927"
           style="fill:#5bbaec;fill-opacity:1;fill-rule:nonzero;stroke:none" />
      </g>
      <path
         d="m 333.32563,524.70335 5.78625,0 0,-2.51375 -5.78625,0 0,2.51375 z"
         id="path3929"
         style="fill:#5bbaec;fill-opacity:1;fill-rule:nonzero;stroke:none" />
      <path
         d="m 333.32563,521.0371 5.78625,0 0,-2.51 -5.78625,0 0,2.51 z"
         id="path3931"
         style="fill:#5bbaec;fill-opacity:1;fill-rule:nonzero;stroke:none" />
      <g
         transform="matrix(1.25,0,0,-1.25,400.88088,541.55522)"
         id="g3933">
        <path
           d="m 0,0 c -1.963,-4.599 -6.759,-7.471 -11.556,-7.471 -7.234,0 -13.047,6.049 -13.047,13.116 0,6.895 5.714,12.907 12.943,12.907 4.159,0 9.397,-2.163 11.797,-7.635 l -5.275,0 c -1.788,2.061 -3.918,3.311 -6.688,3.311 -4.055,0 -8.148,-3.652 -8.148,-8.656 0,-4.689 3.888,-8.719 8.314,-8.719 3.347,0 5.17,1.964 6.286,3.147 L 0,0"
           id="path3935"
           style="fill:#1c4e9d;fill-opacity:1;fill-rule:nonzero;stroke:none" />
      </g>
      <g
         transform="matrix(1.25,0,0,-1.25,409.28175,534.66435)"
         id="g3937">
        <path
           d="m 0,0 c 0,4.792 3.745,8.715 8.444,8.715 4.698,0 8.448,-3.923 8.448,-8.715 0,-4.63 -3.682,-8.66 -8.448,-8.66 C 3.68,-8.66 0,-4.63 0,0 m -4.632,-0.037 c 0,-7.169 5.877,-12.946 13.076,-12.946 7.199,0 13.08,5.777 13.08,12.946 0,7.4 -5.984,13.076 -13.08,13.076 -7.098,0 -13.076,-5.676 -13.076,-13.076"
           id="path3939"
           style="fill:#1c4e9d;fill-opacity:1;fill-rule:nonzero;stroke:none" />
      </g>
      <g
         transform="matrix(1.25,0,0,-1.25,300.2035,541.24397)"
         id="g3941">
        <path
           d="m 0,0 c 0.319,-2.505 3.885,-3.629 5.765,-3.629 2.417,0 5.67,1.53 5.67,3.428 0,2.571 -3.296,3.044 -7.413,4.231 -2.549,0.746 -7.873,1.929 -7.873,7.22 0,3.996 4.12,7.147 9.707,7.147 3.846,0 9.48,-2.028 9.793,-7.147 l -4.879,0 c -0.272,2.236 -3.438,3.088 -5.092,3.088 -1.926,0 -4.503,-1.329 -4.503,-2.816 0,-2.171 3.251,-3.196 6.603,-4.046 2.729,-0.678 8.677,-1.715 8.677,-7.168 0,-5.425 -5.547,-7.998 -10.735,-7.998 -4.247,0 -10.418,2.164 -10.779,7.69 L 0,0"
           id="path3943"
           style="fill:#1c4e9d;fill-opacity:1;fill-rule:nonzero;stroke:none" />
      </g>
      <g
         transform="matrix(1.25,0,0,-1.25,345.81263,558.6121)"
         id="g3945">
        <path
           d="m 0,0 c 0,-1.125 -6.396,-2.048 -14.285,-2.048 -7.886,0 -14.282,0.923 -14.282,2.048 0,1.136 6.396,2.051 14.282,2.051 C -6.396,2.051 0,1.136 0,0"
           id="path3947"
           style="fill:#1c4e9d;fill-opacity:1;fill-rule:nonzero;stroke:none" />
      </g>
      <path
         d="m 356.67688,518.99785 -4.9475,19.145 -5.015,-19.145 -9.62875,0 0,31.21375 5.775,0 0,-23.41125 0.0888,0 6.275,23.41125 4.89125,0 6.2325,-23.41125 0.0837,0 0.04,0 0,23.41125 5.78375,0 0,-31.21375 -9.57875,0 z"
         id="path3951"
         style="fill:#1c4e9d;fill-opacity:1;fill-rule:nonzero;stroke:none" />
      <g
         transform="matrix(1.25,0,0,-1.25,297.35925,574.63635)"
         id="g3953">
        <path
           d="m 0,0 c 0.066,-0.35 0.246,-1.294 1.472,-1.294 0.95,0 1.329,0.5 1.329,0.933 0,0.568 -0.473,0.687 -1.715,0.988 -0.671,0.175 -2.16,0.537 -2.16,2.024 0,0.739 0.481,1.89 2.46,1.89 1.319,0 2.527,-0.522 2.582,-2.049 L 2.601,2.438 C 2.544,2.785 2.441,3.414 1.367,3.414 0.961,3.414 0.228,3.296 0.228,2.749 0.228,2.315 0.652,2.126 1.735,1.872 2.762,1.626 4.155,1.299 4.155,-0.361 4.155,-1.18 3.64,-1.868 3.054,-2.132 2.453,-2.415 1.772,-2.437 1.462,-2.437 c -0.727,0 -2.518,0.071 -2.78,2.315 L 0,0 z"
           id="path3955"
           style="fill:#1c4e9d;fill-opacity:1;fill-rule:nonzero;stroke:none" />
      </g>
      <g
         transform="matrix(1.25,0,0,-1.25,305.99451,569.10647)"
         id="g3957">
        <path
           d="m 0,0 0,-3.643 c 0,-0.8 0,-1.13 0.171,-1.453 0.253,-0.483 0.781,-0.592 1.196,-0.592 1.3,0 1.3,0.821 1.3,1.968 l 0,3.72 1.356,0 0,-3.54 c 0,-1.205 -0.047,-1.876 -0.376,-2.383 -0.518,-0.804 -1.49,-0.937 -2.242,-0.937 -2.763,0 -2.763,1.713 -2.763,3.266 L -1.358,0 0,0 z"
           id="path3959"
           style="fill:#1c4e9d;fill-opacity:1;fill-rule:nonzero;stroke:none" />
      </g>
      <g
         transform="matrix(1.25,0,0,-1.25,313.10988,569.10647)"
         id="g3961">
        <path
           d="m 0,0 2.036,0 1.216,-4.595 0.017,0 1.196,4.595 2.048,0 0,-6.743 -1.264,0 0,5.314 -0.02,0 -1.311,-5.314 -1.309,0 -1.329,5.314 -0.018,0 0,-5.314 L 0,-6.743 0,0 z"
           id="path3963"
           style="fill:#1c4e9d;fill-opacity:1;fill-rule:nonzero;stroke:none" />
      </g>
      <g
         transform="matrix(1.25,0,0,-1.25,330.35725,574.95735)"
         id="g3965">
        <path
           d="m 0,0 c -0.142,-0.524 -0.593,-2.18 -2.801,-2.18 -1.83,0 -3.072,1.334 -3.072,3.434 0,1.871 0.952,3.544 3.149,3.544 0.376,0 1.319,-0.04 2.063,-0.777 0.339,-0.334 0.51,-0.735 0.642,-1.205 L -1.367,2.495 c -0.171,0.736 -0.727,1.133 -1.423,1.133 -1.678,0 -1.678,-1.849 -1.678,-2.28 0,-0.631 0.074,-1.262 0.359,-1.697 0.244,-0.375 0.697,-0.659 1.301,-0.659 0.902,0 1.317,0.688 1.486,1.423 L 0,0 z"
           id="path3967"
           style="fill:#1c4e9d;fill-opacity:1;fill-rule:nonzero;stroke:none" />
      </g>
      <g
         transform="matrix(1.25,0,0,-1.25,333.98275,575.1551)"
         id="g3969">
        <path
           d="m 0,0 c 0.227,-0.395 0.708,-0.85 1.526,-0.85 0.715,0 1.859,0.386 1.859,2.339 0,0.762 -0.199,2.297 -1.859,2.297 -1.545,0 -1.865,-1.33 -1.865,-2.316 C -0.339,0.704 -0.16,0.271 0,0 m 1.519,4.956 c 2.203,0 3.267,-1.526 3.267,-3.499 0,-1.76 -0.885,-3.478 -3.25,-3.478 -2.536,0 -3.277,1.899 -3.277,3.454 0,2.156 1.167,3.523 3.26,3.523"
           id="path3971"
           style="fill:#1c4e9d;fill-opacity:1;fill-rule:nonzero;stroke:none" />
      </g>
      <g
         transform="matrix(1.25,0,0,-1.25,352.36038,574.95735)"
         id="g3973">
        <path
           d="m 0,0 c -0.142,-0.524 -0.594,-2.18 -2.801,-2.18 -1.826,0 -3.07,1.334 -3.07,3.434 0,1.871 0.952,3.544 3.147,3.544 0.376,0 1.32,-0.04 2.065,-0.777 C -0.321,3.687 -0.15,3.286 -0.02,2.816 L -1.366,2.495 c -0.171,0.736 -0.728,1.133 -1.422,1.133 -1.679,0 -1.679,-1.849 -1.679,-2.28 0,-0.631 0.077,-1.262 0.359,-1.697 0.244,-0.375 0.696,-0.659 1.3,-0.659 0.905,0 1.32,0.688 1.49,1.423 L 0,0 z"
           id="path3975"
           style="fill:#1c4e9d;fill-opacity:1;fill-rule:nonzero;stroke:none" />
      </g>
      <g
         transform="matrix(1.25,0,0,-1.25,355.98713,575.1551)"
         id="g3977">
        <path
           d="m 0,0 c 0.229,-0.395 0.708,-0.85 1.528,-0.85 0.715,0 1.856,0.386 1.856,2.339 0,0.762 -0.198,2.297 -1.856,2.297 -1.548,0 -1.866,-1.33 -1.866,-2.316 C -0.338,0.704 -0.159,0.271 0,0 m 1.518,4.956 c 2.204,0 3.271,-1.526 3.271,-3.499 0,-1.76 -0.887,-3.478 -3.252,-3.478 -2.536,0 -3.28,1.899 -3.28,3.454 0,2.156 1.169,3.523 3.261,3.523"
           id="path3979"
           style="fill:#1c4e9d;fill-opacity:1;fill-rule:nonzero;stroke:none" />
      </g>
      <g
         transform="matrix(1.25,0,0,-1.25,365.40125,572.67222)"
         id="g3981">
        <path
           d="M 0,0 1.006,0 C 1.423,0 1.999,0 2.233,0.085 2.704,0.247 2.752,0.677 2.752,0.879 2.752,1.147 2.655,1.416 2.401,1.563 2.147,1.715 1.98,1.715 1.064,1.715 L 0,1.715 0,0 z m -1.358,2.853 2.866,0 C 2.518,2.853 2.844,2.75 3.052,2.686 3.833,2.393 4.155,1.619 4.155,0.96 4.155,0.226 3.787,-0.424 3.129,-0.7 2.893,-0.8 2.637,-0.876 2.373,-0.903 l 0,-0.022 c 0.566,-0.32 0.83,-0.564 1.508,-1.645 l 0.823,-1.321 -1.634,0 -0.978,1.47 c -0.819,1.216 -0.904,1.35 -1.82,1.35 l -0.272,0 0,-2.82 -1.358,0 0,6.744 z"
           id="path3983"
           style="fill:#1c4e9d;fill-opacity:1;fill-rule:nonzero;stroke:none" />
      </g>
      <g
         transform="matrix(1.25,0,0,-1.25,374.25738,570.5286)"
         id="g3985">
        <path
           d="m 0,0 0,-1.923 0.756,0 c 0.696,0 1.648,0 1.648,0.971 0,0.246 -0.075,0.5 -0.311,0.689 C 1.792,0 1.472,0 0.661,0 L 0,0 z m -1.355,1.138 2.185,0 C 2.019,1.138 2.385,1.101 2.744,0.934 3.176,0.723 3.809,0.207 3.809,-0.934 3.809,-2.122 3.13,-2.631 2.705,-2.826 2.226,-3.052 1.499,-3.058 0.896,-3.058 l -0.896,0 0,-2.547 -1.355,0 0,6.743 z"
           id="path3987"
           style="fill:#1c4e9d;fill-opacity:1;fill-rule:nonzero;stroke:none" />
      </g>
      <g
         transform="matrix(1.25,0,0,-1.25,382.57525,575.1551)"
         id="g3989">
        <path
           d="m 0,0 c 0.226,-0.395 0.706,-0.85 1.524,-0.85 0.721,0 1.858,0.386 1.858,2.339 0,0.762 -0.197,2.297 -1.858,2.297 -1.544,0 -1.863,-1.33 -1.863,-2.316 C -0.339,0.704 -0.16,0.271 0,0 m 1.518,4.956 c 2.203,0 3.27,-1.526 3.27,-3.499 0,-1.76 -0.888,-3.478 -3.252,-3.478 -2.537,0 -3.279,1.899 -3.279,3.454 0,2.156 1.168,3.523 3.261,3.523"
           id="path3991"
           style="fill:#1c4e9d;fill-opacity:1;fill-rule:nonzero;stroke:none" />
      </g>
      <g
         transform="matrix(1.25,0,0,-1.25,391.98813,572.67222)"
         id="g3993">
        <path
           d="m 0,0 1.008,0 c 0.416,0 0.989,0 1.225,0.085 0.47,0.162 0.52,0.592 0.52,0.794 0,0.268 -0.097,0.537 -0.351,0.684 C 2.148,1.715 1.978,1.715 1.063,1.715 L 0,1.715 0,0 z m -1.357,2.853 2.865,0 C 2.517,2.853 2.846,2.75 3.052,2.686 3.835,2.393 4.157,1.619 4.157,0.96 4.157,0.226 3.789,-0.424 3.129,-0.7 2.893,-0.8 2.641,-0.876 2.375,-0.903 l 0,-0.022 c 0.564,-0.32 0.828,-0.564 1.509,-1.645 l 0.82,-1.321 -1.634,0 -0.978,1.47 c -0.819,1.216 -0.903,1.35 -1.819,1.35 l -0.273,0 0,-2.82 -1.357,0 0,6.744 z"
           id="path3995"
           style="fill:#1c4e9d;fill-opacity:1;fill-rule:nonzero;stroke:none" />
      </g>
      <g
         transform="matrix(1.25,0,0,-1.25,403.61413,574.20297)"
         id="g3997">
        <path
           d="M 0,0 -0.933,2.506 -1.848,0 0,0 z m 1.019,-2.666 -0.585,1.525 -2.694,0 -0.554,-1.525 -1.456,0 2.629,6.743 1.445,0 2.704,-6.743 -1.489,0 z"
           id="path3999"
           style="fill:#1c4e9d;fill-opacity:1;fill-rule:nonzero;stroke:none" />
      </g>
      <g
         transform="matrix(1.25,0,0,-1.25,408.82401,570.5286)"
         id="g4001">
        <path
           d="m 0,0 -2,0 0,1.138 5.353,0 0,-1.138 -1.996,0 0,-5.605 L 0,-5.605 0,0 z"
           id="path4003"
           style="fill:#1c4e9d;fill-opacity:1;fill-rule:nonzero;stroke:none" />
      </g>
      <path
         d="m 414.40938,569.1071 1.69375,0 0,8.42875 -1.69375,0 0,-8.42875 z"
         id="path4005"
         style="fill:#1c4e9d;fill-opacity:1;fill-rule:nonzero;stroke:none" />
      <g
         transform="matrix(1.25,0,0,-1.25,419.93363,575.1551)"
         id="g4007">
        <path
           d="m 0,0 c 0.226,-0.395 0.707,-0.85 1.525,-0.85 0.716,0 1.856,0.386 1.856,2.339 0,0.762 -0.196,2.297 -1.856,2.297 -1.547,0 -1.867,-1.33 -1.867,-2.316 C -0.342,0.704 -0.162,0.271 0,0 m 1.515,4.956 c 2.207,0 3.271,-1.526 3.271,-3.499 0,-1.76 -0.886,-3.478 -3.253,-3.478 -2.533,0 -3.279,1.899 -3.279,3.454 0,2.156 1.169,3.523 3.261,3.523"
           id="path4009"
           style="fill:#1c4e9d;fill-opacity:1;fill-rule:nonzero;stroke:none" />
      </g>
      <g
         transform="matrix(1.25,0,0,-1.25,427.68025,569.10647)"
         id="g4011">
        <path
           d="m 0,0 1.322,0 2.741,-4.501 0.02,0 0,4.501 1.262,0 0,-6.743 -1.366,0 -2.697,4.394 -0.018,0 0,-4.394 L 0,-6.743 0,0 z"
           id="path4013"
           style="fill:#1c4e9d;fill-opacity:1;fill-rule:nonzero;stroke:none" />
      </g>
    </g>
  </g>
</svg>
