<svg width="168" height="168" viewBox="0 0 168 168" fill="none" xmlns="http://www.w3.org/2000/svg">
<rect x="0.5" y="0.5" width="167" height="167" rx="83.5" fill="white"/>
<rect x="0.5" y="0.5" width="167" height="167" rx="83.5" stroke="#EDEEF1"/>
<path d="M55.6285 64.0199C62.7622 63.9212 68.2671 66.8818 72.4277 72.4849C78.1007 80.1255 83.8368 87.7211 89.5365 95.343C91.6792 98.208 91.7614 99.7705 89.9453 102.139C88.1674 104.457 84.2245 104.682 82.3951 102.405C79.4615 98.7543 76.6922 94.9768 73.8325 91.2686C70.1889 86.5449 66.5835 81.7905 62.8475 77.138C60.382 74.0674 56.9549 73.3812 53.2412 74.2462C49.795 75.0487 47.6421 77.308 46.3418 80.5418C44.8027 84.3712 46.7595 89.1693 49.781 91.3643C53.189 93.8399 57.9368 93.8886 61.511 91.4986C63.2595 90.3293 64.3497 88.6518 65.0992 86.7762C65.499 85.7755 65.799 85.5837 66.488 86.5255C68.0378 88.6436 69.5706 90.7768 71.1988 92.8361C72.0005 93.8505 72.0138 94.6843 71.2357 95.6968C67.0375 101.16 61.5269 103.9 54.4912 103.561C43.0185 103.006 34.822 92.8136 36.1388 81.0749C37.0303 73.1281 44.1106 65.7931 50.9629 64.4593C52.5019 64.1599 54.0506 63.9293 55.6285 64.0199V64.0199Z" fill="url(#paint0_linear_4917_4021)"/>
<path d="M102.24 81.8178C100.349 79.2659 98.4237 76.6872 96.5254 74.0897C96.1924 73.634 96.5216 73.2159 96.7935 72.8322C100.166 68.0822 104.682 65.1553 110.653 64.6884C119.303 64.0116 125.688 67.6184 129.678 75.0097C134.646 84.2121 131.402 95.7459 122.255 101.186C113.803 106.213 102.067 103.856 95.853 95.3321C90.2456 87.6403 84.4829 80.0572 78.8067 72.4128C76.7563 69.6515 76.6697 68.2334 78.2998 66.0297C79.9866 63.7491 84.0893 63.5828 85.8213 65.8291C91.104 72.679 96.3217 79.5765 101.572 86.4509C102.603 87.8015 103.644 89.1459 104.713 90.4671C108.344 94.9552 114.627 95.5971 118.833 91.924C123.465 87.8784 123.78 81.5559 119.556 77.4053C114.313 72.2534 105.654 74.0215 102.922 80.7965C102.795 81.1128 102.855 81.5309 102.24 81.8184V81.8178Z" fill="url(#paint1_linear_4917_4021)"/>
<defs>
<linearGradient id="paint0_linear_4917_4021" x1="91.2311" y1="64" x2="32.0041" y2="71.2197" gradientUnits="userSpaceOnUse">
<stop stop-color="#FBB931"/>
<stop offset="1" stop-color="#FF8660"/>
</linearGradient>
<linearGradient id="paint1_linear_4917_4021" x1="132" y1="64.229" x2="73.2028" y2="71.4217" gradientUnits="userSpaceOnUse">
<stop stop-color="#FBB931"/>
<stop offset="1" stop-color="#FF8660"/>
</linearGradient>
</defs>
</svg>
